#!OML:ASF X:\für Bonn\!DataBase\2005_08_12_Daniel\c3d\Daniel.ASF
:FULLY-SPECIFIED
:DEGREES
50
root 0.563411 12.0587 -1.22091 5.60226 -88.035 -28.0651
lowerback 45.5047 -2.77016 5.23177
upperback 2.84548 -2.00674 -2.15358
thorax -18.5556 -1.56927 -4.02862
lowerneck 9.01332 1.33873 -2.25654
upperneck -1.83778 1.58047 1.59226
head -2.16928 0.748782 0.825076
rclavicle -2.78299e-015 -2.38542e-015
rhumerus 62.8921 3.83923 -90.377
rradius 7.61619
rwrist 52.2567
rhand -19.1604 7.10843
rfingers 7.12502
rthumb 7.1503 -22.7508
lclavicle -2.78299e-015 -2.38542e-015
lhumerus 63.2502 1.72373 94.6185
lradius 10.7235
lwrist -68.3987
lhand -16.3438 -1.62002
lfingers 7.12502
lthumb 9.86852 28.1287
rfemur -30.0989 -31.1656 -5.35604
rtibia 107.464
rfoot -12.1815 36.7871
rtoes -0.689481
lfemur -37.2049 24.7155 3.44822
ltibia 106.713
lfoot -25.8786 -31.0526
ltoes 2.21271
51
root 0.57492 11.8495 -1.21096 8.1393 -88.0524 -30.8064
lowerback 46.0448 -2.81671 5.29936
upperback 2.87657 -2.01937 -2.15034
thorax -18.6831 -1.58645 -4.04222
lowerneck 8.96233 1.36312 -2.3151
upperneck -1.96597 1.61131 1.61115
head -2.20429 0.765353 0.840218
rclavicle 1.50082e-014 -9.14409e-015
rhumerus 63.422 3.89055 -90.3881
rradius 7.57126
rwrist 52.3716
rhand -19.0456 7.0523
rfingers 7.12502
rthumb 7.26116 -22.8031
lclavicle 1.50082e-014 -9.14409e-015
lhumerus 63.6779 1.80733 94.9142
lradius 10.7218
lwrist -68.9734
lhand -16.3413 -1.69002
lfingers 7.12502
lthumb 9.87085 28.0586
rfemur -30.9214 -32.4755 -6.50674
rtibia 109.634
rfoot -12.4117 37.7825
rtoes -0.987507
lfemur -38.392 25.9166 4.37431
ltibia 108.857
lfoot -25.1926 -32.2265
ltoes 2.44027
52
root 0.586404 11.6391 -1.20198 10.7288 -88.0625 -33.6204
lowerback 46.6276 -2.85646 5.35345
upperback 2.88769 -2.02332 -2.13205
thorax -18.8436 -1.59943 -4.03548
lowerneck 8.95845 1.39597 -2.38741
upperneck -2.09628 1.64991 1.61741
head -2.24891 0.786022 0.853246
rclavicle -2.78299e-015 9.93923e-015
rhumerus 63.9055 3.93063 -90.3725
rradius 7.55663
rwrist 52.4181
rhand -18.9408 7.06315
rfingers 7.12502
rthumb 7.36234 -22.7888
lclavicle -2.78299e-015 9.93923e-015
lhumerus 64.086 1.85357 95.159
lradius 10.6741
lwrist -69.4055
lhand -16.3707 -1.66789
lfingers 7.12502
lthumb 9.84256 28.0821
rfemur -31.6476 -33.856 -7.77509
rtibia 111.77
rfoot -12.48 38.8709
rtoes -1.14115
lfemur -39.5032 27.1708 5.3669
ltibia 110.952
lfoot -24.5668 -33.4268
ltoes 2.66206
53
root 0.597464 11.4251 -1.19217 12.9796 -88.073 -36.1052
lowerback 47.1954 -2.90136 5.40459
upperback 2.9155 -2.03777 -2.11696
thorax -18.9759 -1.61625 -4.02501
lowerneck 8.938 1.42853 -2.50238
upperneck -2.23712 1.6848 1.6397
head -2.29486 0.805013 0.879131
rclavicle -2.18663e-015 -1.39149e-014
rhumerus 64.3961 3.98638 -90.3544
rradius 7.57055
rwrist 52.4671
rhand -18.8306 7.0137
rfingers 7.12502
rthumb 7.4687 -22.8345
lclavicle -2.18663e-015 -1.39149e-014
lhumerus 64.5206 1.9875 95.5662
lradius 10.6089
lwrist -70.0497
lhand -16.4229 -1.69023
lfingers 7.12502
lthumb 9.79219 28.0621
rfemur -32.2712 -35.3433 -9.27715
rtibia 113.905
rfoot -12.1815 40.145
rtoes -1.0227
lfemur -40.5849 28.5002 6.3873
ltibia 113.028
lfoot -24.0334 -34.566
ltoes 2.82961
54
root 0.608101 11.2055 -1.18356 14.6662 -88.0873 -38.0298
lowerback 48.5878 -2.99554 5.44318
upperback 1.87706 -2.05769 -2.21078
thorax -18.8821 -1.6093 -3.95993
lowerneck 8.96795 1.45616 -2.50812
upperneck -2.3979 1.72145 1.60993
head -2.35461 0.825208 0.868962
rclavicle -1.75924e-014 -1.19271e-015
rhumerus 64.8278 4.02389 -90.3651
rradius 7.62712
rwrist 52.546
rhand -18.7852 6.95135
rfingers 7.12502
rthumb 7.51249 -22.8952
lclavicle -1.75924e-014 -1.19271e-015
lhumerus 64.957 2.17994 96.2007
lradius 10.4974
lwrist -70.867
lhand -16.4743 -1.66669
lfingers 7.12502
lthumb 9.74255 28.088
rfemur -32.8055 -36.9729 -11.0129
rtibia 116.048
rfoot -11.7741 41.5791
rtoes -0.931103
lfemur -41.6333 29.9438 7.48144
ltibia 115.092
lfoot -23.4756 -35.8218
ltoes 3.03425
55
root 0.618637 10.9835 -1.17515 16.7672 -88.1099 -40.4235
lowerback 49.235 -3.02834 5.47285
upperback 1.8726 -2.06572 -2.20414
thorax -19.0057 -1.62244 -3.94685
lowerneck 8.97892 1.47787 -2.56463
upperneck -2.55398 1.74507 1.58433
head -2.40991 0.839491 0.869652
rclavicle 1.12313e-014 5.56597e-015
rhumerus 65.2794 4.05366 -90.3458
rradius 7.66892
rwrist 52.6232
rhand -18.741 6.92671
rfingers 7.12502
rthumb 7.55514 -22.9184
lclavicle 1.12313e-014 5.56597e-015
lhumerus 65.3894 2.47716 97.1119
lradius 10.4402
lwrist -72.0238
lhand -16.5042 -1.63727
lfingers 7.12502
lthumb 9.7137 28.1187
rfemur -33.1359 -38.7026 -13.0042
rtibia 118.172
rfoot -11.3744 43.15
rtoes -0.878197
lfemur -42.538 31.5259 8.73577
ltibia 117.136
lfoot -23.0054 -37.1306
ltoes 3.20586
56
root 0.628274 10.7616 -1.16601 18.9213 -88.1451 -42.8872
lowerback 49.9019 -3.0585 5.5047
upperback 1.86002 -2.06904 -2.20276
thorax -19.1378 -1.63444 -3.94294
lowerneck 9.03825 1.50188 -2.62253
upperneck -2.72668 1.77004 1.55721
head -2.47995 0.854387 0.869898
rclavicle 1.09332e-015 -9.54166e-015
rhumerus 65.7 4.09516 -90.3347
rradius 7.70237
rwrist 52.7894
rhand -18.8059 6.84415
rfingers 7.12502
rthumb 7.49248 -23.0032
lclavicle 1.09332e-015 -9.54166e-015
lhumerus 65.7296 2.6589 97.7766
lradius 10.5118
lwrist -72.8186
lhand -16.4215 -1.56092
lfingers 7.12502
lthumb 9.79355 28.1913
rfemur -33.2636 -40.5595 -15.285
rtibia 120.265
rfoot -11.01 44.8298
rtoes -0.83697
lfemur -43.3289 33.2362 10.1113
ltibia 119.154
lfoot -22.6178 -38.4548
ltoes 3.25395
57
root 0.637512 10.5391 -1.15741 20.7726 -88.1681 -45.1123
lowerback 50.6584 -3.09299 5.5192
upperback 1.8449 -2.08389 -2.1948
thorax -19.2831 -1.65079 -3.915
lowerneck 9.02037 1.52094 -2.65047
upperneck -2.86174 1.79228 1.50806
head -2.52224 0.868565 0.858011
rclavicle -9.93923e-016 8.34896e-015
rhumerus 65.983 4.14259 -90.3219
rradius 7.96385
rwrist 52.9567
rhand -18.8086 6.80712
rfingers 7.12502
rthumb 7.4899 -23.0403
lclavicle -9.93923e-016 8.34896e-015
lhumerus 66.1716 2.74596 98.1955
lradius 10.5153
lwrist -73.312
lhand -16.2436 -1.38229
lfingers 7.12502
lthumb 9.96513 28.3618
rfemur -33.0691 -42.522 -17.9367
rtibia 122.302
rfoot -10.5536 46.6745
rtoes -0.713131
lfemur -43.9415 35.0367 11.6744
ltibia 121.142
lfoot -22.2249 -39.92
ltoes 3.45296
58
root 0.646891 10.315 -1.14787 23.4491 -88.1864 -48.1783
lowerback 51.4489 -3.14944 5.58474
upperback 1.82038 -2.09981 -2.21001
thorax -19.4401 -1.67251 -3.93659
lowerneck 8.96854 1.52947 -2.6217
upperneck -2.99472 1.80626 1.42957
head -2.55606 0.879101 0.827155
rclavicle -7.25564e-015 -9.93923e-015
rhumerus 66.2773 4.16764 -90.3326
rradius 8.22602
rwrist 53.1834
rhand -18.8118 6.7372
rfingers 7.12502
rthumb 7.48682 -23.1103
lclavicle -7.25564e-015 -9.93923e-015
lhumerus 66.6098 2.78155 98.5019
lradius 10.4963
lwrist -73.6491
lhand -16.0866 -1.22689
lfingers 7.12502
lthumb 10.1166 28.5099
rfemur -32.6071 -44.624 -20.9552
rtibia 124.317
rfoot -10.1088 48.6251
rtoes -0.66628
lfemur -44.4404 37.024 13.4625
ltibia 123.122
lfoot -21.8706 -41.4703
ltoes 3.46149
59
root 0.655356 10.0922 -1.13894 26.2647 -88.2259 -51.4
lowerback 52.2678 -3.18067 5.60463
upperback 1.79096 -2.10412 -2.19892
thorax -19.5975 -1.68625 -3.91167
lowerneck 8.84684 1.54039 -2.62289
upperneck -3.06685 1.82036 1.3366
head -2.55653 0.890517 0.797019
rclavicle -8.54774e-015 1.07344e-014
rhumerus 66.6802 4.20764 -90.2956
rradius 8.31879
rwrist 53.3943
rhand -18.908 6.74616
rfingers 7.12502
rthumb 7.39392 -23.1046
lclavicle -8.54774e-015 1.07344e-014
lhumerus 67.0671 2.81417 98.7363
lradius 10.4509
lwrist -73.8086
lhand -15.9551 -1.03893
lfingers 7.12502
lthumb 10.2435 28.6916
rfemur -31.7911 -46.8328 -24.4355
rtibia 126.302
rfoot -9.67165 50.6811
rtoes -0.550323
lfemur -44.7395 39.1723 15.4726
ltibia 125.066
lfoot -21.624 -43.0626
ltoes 3.46877
60
root 0.663935 9.86965 -1.12958 28.8949 -88.2712 -54.4342
lowerback 53.0788 -3.21253 5.63958
upperback 1.76375 -2.10705 -2.21506
thorax -19.7449 -1.70128 -3.92656
lowerneck 8.67716 1.5263 -2.53333
upperneck -3.10735 1.809 1.18442
head -2.5346 0.889992 0.733335
rclavicle -2.43511e-015 1.59028e-015
rhumerus 67.134 4.21846 -90.2803
rradius 8.35037
rwrist 53.5499
rhand -18.9696 6.7402
rfingers 7.12502
rthumb 7.33454 -23.1127
lclavicle -2.43511e-015 1.59028e-015
lhumerus 67.555 2.82795 99.0701
lradius 10.3325
lwrist -74.0219
lhand -15.8275 -0.873881
lfingers 7.12502
lthumb 10.3665 28.8506
rfemur -30.5023 -49.1551 -28.5088
rtibia 128.242
rfoot -9.13955 52.8735
rtoes -0.44127
lfemur -44.9078 41.4446 17.6667
ltibia 126.986
lfoot -21.4355 -44.719
ltoes 3.52849
61
root 0.672944 9.65035 -1.11994 32.3624 -88.3006 -58.2932
lowerback 53.9034 -3.25393 5.67408
upperback 1.70083 -2.11395 -2.2169
thorax -19.9317 -1.71796 -3.92252
lowerneck 8.56916 1.52046 -2.44477
upperneck -3.16297 1.80539 1.01347
head -2.52928 0.893657 0.663303
rclavicle -5.61567e-015 -1.74931e-014
rhumerus 67.5753 4.25281 -90.2616
rradius 8.33683
rwrist 53.6399
rhand -18.9948 6.75611
rfingers 7.12502
rthumb 7.31014 -23.0976
lclavicle -5.61567e-015 -1.74931e-014
lhumerus 67.9688 2.83156 99.2226
lradius 10.2134
lwrist -73.95
lhand -15.7672 -0.67337
lfingers 7.12502
lthumb 10.4248 29.0482
rfemur -28.7966 -51.4802 -33.0335
rtibia 130.133
rfoot -8.37823 55.0569
rtoes -0.127257
lfemur -44.8776 43.8741 20.1345
ltibia 128.858
lfoot -21.2987 -46.4234
ltoes 3.48663
62
root 0.681255 9.43419 -1.11001 36.6335 -88.3337 -62.9073
lowerback 54.6095 -3.28122 5.71516
upperback 1.6804 -2.10806 -2.22076
thorax -20.0414 -1.72884 -3.93286
lowerneck 8.47193 1.51692 -2.36498
upperneck -3.26962 1.8045 0.856884
head -2.54363 0.898574 0.599341
rclavicle -1.83876e-015 -9.54166e-015
rhumerus 68.0312 4.2781 -90.2409
rradius 8.33763
rwrist 53.6355
rhand -19.0039 6.8381
rfingers 7.12502
rthumb 7.30134 -23.0159
lclavicle -1.83876e-015 -9.54166e-015
lhumerus 68.3542 2.77975 99.2405
lradius 10.1541
lwrist -73.6481
lhand -15.7865 -0.509359
lfingers 7.12502
lthumb 10.4062 29.2131
rfemur -26.5744 -53.8137 -38.163
rtibia 131.994
rfoot -7.6132 57.263
rtoes 0.14658
lfemur -44.6431 46.4949 22.9124
ltibia 130.708
lfoot -21.1989 -48.182
ltoes 3.42955
63
root 0.691208 9.21985 -1.09984 41.1597 -88.365 -67.7526
lowerback 55.2893 -3.29564 5.74429
upperback 1.64475 -2.0909 -2.21864
thorax -20.1609 -1.73422 -3.93769
lowerneck 8.43721 1.50726 -2.30545
upperneck -3.38165 1.79098 0.699343
head -2.57161 0.897287 0.538949
rclavicle 2.18663e-015 3.57812e-015
rhumerus 68.4592 4.30063 -90.2111
rradius 8.32996
rwrist 53.5382
rhand -18.9466 6.92253
rfingers 7.12502
rthumb 7.35668 -22.9296
lclavicle 2.18663e-015 3.57812e-015
lhumerus 68.591 2.68372 99.0907
lradius 10.2302
lwrist -73.0866
lhand -15.7438 -0.365749
lfingers 7.12502
lthumb 10.4473 29.3547
rfemur -23.8033 -56.0728 -43.9142
rtibia 133.836
rfoot -7.0563 59.4198
rtoes 0.344647
lfemur -44.146 49.2373 25.9726
ltibia 132.521
lfoot -21.3732 -49.901
ltoes 3.25621
64
root 0.701075 9.01007 -1.08873 45.7908 -88.3829 -72.672
lowerback 55.9013 -3.31395 5.78407
upperback 1.6298 -2.07661 -2.21943
thorax -20.2418 -1.74079 -3.95045
lowerneck 8.49471 1.49983 -2.26273
upperneck -3.57777 1.77708 0.559844
head -2.6459 0.89585 0.486708
rclavicle -6.11263e-015 -3.29983e-014
rhumerus 68.8599 4.29197 -90.1661
rradius 8.35193
rwrist 53.2559
rhand -18.8438 7.05272
rfingers 7.12502
rthumb 7.45595 -22.7959
lclavicle -6.11263e-015 -3.29983e-014
lhumerus 68.7168 2.51502 98.6517
lradius 10.4362
lwrist -72.2315
lhand -15.7648 -0.322411
lfingers 7.12502
lthumb 10.4271 29.399
rfemur -20.3809 -58.1488 -50.3428
rtibia 135.628
rfoot -6.5027 61.5118
rtoes 0.602696
lfemur -43.3573 52.0633 29.368
ltibia 134.302
lfoot -21.768 -51.5792
ltoes 2.92553
